<svg xmlns="http://www.w3.org/2000/svg" xmlns:xlink="http://www.w3.org/1999/xlink" version="1.1" x="0px" y="0px" viewBox="0 0 100 100" enable-background="new 0 0 100 100" xml:space="preserve"><g><g><path d="M66.37,69.223H33.936c-1.531,0-2.771-1.241-2.771-2.772s1.24-2.772,2.771-2.772H66.37c1.531,0,2.771,1.241,2.771,2.772    S67.901,69.223,66.37,69.223z"/></g><g><path fill-rule="evenodd" clip-rule="evenodd" d="M81.86,18.26c-17.52-17.51-45.9-17.52-63.42,0c-17.52,17.52-17.51,45.91,0,63.42    c17.52,17.52,45.9,17.51,63.42,0C99.38,64.17,99.38,35.78,81.86,18.26z M52.73,83.5c-18.52,1.43-34.69-12.44-36.11-30.95    c-1.43-18.52,12.43-34.68,30.95-36.11c18.53-1.43,34.69,12.43,36.11,30.95C85.11,65.92,71.24,82.08,52.73,83.5z"/></g><g><path d="M69.95,39.93l-2.18,1.37c1.51,1,2.51,2.72,2.51,4.67c0,3.1-2.555,5.6-5.645,5.6c-3.1,0-5.635-2.5-5.635-5.6v-0.05    c-1-0.13-1.415-0.56-1.855-1.26c-0.81-1.29-0.402-3.01,0.898-3.82l8.959-5.61c1.29-0.81,3.004-0.42,3.824,0.88    C71.636,37.4,71.25,39.12,69.95,39.93z"/></g><g><path d="M43.195,44.66C42.675,45.48,42,45.94,41,45.96v0.01c0,3.1-2.595,5.6-5.695,5.6c-3.09,0-5.642-2.5-5.642-5.6    c0-2.04,1.059-3.82,2.689-4.79l-2.001-1.25c-1.29-0.81-1.695-2.53-0.875-3.82c0.81-1.3,2.517-1.69,3.817-0.88l8.981,5.61    C43.574,41.65,44.005,43.37,43.195,44.66z"/></g></g></svg>
