<svg xmlns="http://www.w3.org/2000/svg" xmlns:xlink="http://www.w3.org/1999/xlink" version="1.1" x="0px" y="0px" viewBox="0 0 100 100" enable-background="new 0 0 100 100" xml:space="preserve"><g><g><path d="M66.092,67.504H33.659c-1.531,0-2.772-1.24-2.772-2.771s1.241-2.771,2.772-2.771h32.433c1.531,0,2.772,1.24,2.772,2.771    S67.623,67.504,66.092,67.504z"/></g><g><path fill-rule="evenodd" clip-rule="evenodd" d="M81.53,18.27c-17.52-17.51-45.9-17.51-63.42,0C0.59,35.79,0.6,64.18,18.11,81.7    c17.52,17.52,45.9,17.51,63.42,0C99.05,64.18,99.05,35.79,81.53,18.27z M52.4,83.51c-18.52,1.44-34.69-12.43-36.11-30.95    c-1.43-18.52,12.43-34.68,30.95-36.1c18.53-1.44,34.69,12.43,36.11,30.94C84.78,65.93,70.91,82.09,52.4,83.51z"/></g><g><path d="M70.14,51.66c-0.55,0.54-1.26,0.82-1.97,0.82c-0.71,0-1.41-0.27-1.95-0.81l-1.78-1.77l-1.77,1.78    c-0.54,0.54-1.25,0.82-1.97,0.82c-0.7,0-1.41-0.27-1.95-0.81c-1.09-1.08-1.09-2.83-0.01-3.92l1.76-1.78l-1.77-1.76    c-1.09-1.08-1.1-2.84-0.02-3.92c1.08-1.09,2.84-1.09,3.92-0.01l1.78,1.77l1.77-1.79c1.08-1.08,2.84-1.09,3.92-0.01    c1.09,1.08,1.09,2.84,0.01,3.92l-1.77,1.78l1.78,1.77C71.21,48.82,71.22,50.57,70.14,51.66z"/></g><g><path d="M40.69,51.66c-0.54,0.54-1.26,0.82-1.97,0.82c-0.7,0-1.41-0.27-1.95-0.81l-1.78-1.77l-1.77,1.78    c-0.54,0.54-1.25,0.82-1.96,0.82s-1.42-0.27-1.96-0.81c-1.08-1.08-1.09-2.83-0.01-3.92l1.76-1.78l-1.77-1.76    c-1.09-1.08-1.09-2.84-0.01-3.92c1.08-1.09,2.83-1.09,3.92-0.01l1.77,1.76l1.77-1.78c1.08-1.08,2.84-1.09,3.92-0.01    c1.09,1.08,1.09,2.84,0.01,3.92l-1.77,1.78l1.79,1.77C41.76,48.82,41.77,50.57,40.69,51.66z"/></g></g></svg>
