<svg xmlns="http://www.w3.org/2000/svg" xmlns:xlink="http://www.w3.org/1999/xlink" version="1.1" x="0px" y="0px" viewBox="0 0 100 100" enable-background="new 0 0 100 100" xml:space="preserve"><g><g><path fill-rule="evenodd" clip-rule="evenodd" d="M82.08,17.88c-17.51-17.52-45.9-17.52-63.42,0c-17.51,17.51-17.51,45.9,0,63.42    c17.52,17.52,45.91,17.51,63.42,0C99.6,63.78,99.6,35.39,82.08,17.88z M52.95,83.12c-18.51,1.43-34.68-12.44-36.11-30.96    c-1.43-18.51,12.43-34.68,30.95-36.1C66.32,14.62,82.48,28.49,83.91,47C85.33,65.53,71.46,81.69,52.95,83.12z"/><path fill-rule="evenodd" clip-rule="evenodd" d="M43.33,44.28c-0.51,0.82-1.38,1.28-2.28,1.3c0,3.1-2.51,5.61-5.61,5.61    c-3.09,0-5.6-2.51-5.6-5.61c0-2.03,1.09-3.82,2.72-4.79l-1.99-1.25c-1.3-0.81-1.69-2.52-0.88-3.81c0.81-1.3,2.52-1.7,3.82-0.88    l8.95,5.61C43.75,41.27,44.14,42.98,43.33,44.28z"/></g><g><path d="M70.17,39.54l-2.19,1.37c1.52,1,2.52,2.72,2.52,4.68c0,3.09-2.655,5.6-5.755,5.6c-3.09,0-5.745-2.51-5.745-5.6v-0.05    c0-0.13-1.305-0.56-1.735-1.26c-0.82-1.3-0.357-3.01,0.943-3.82l8.986-5.61c1.29-0.82,3.018-0.42,3.838,0.88    C71.842,37.02,71.47,38.73,70.17,39.54z"/></g><g><path d="M50.725,73.528c-0.001,0-0.002,0-0.003,0c-8.193,0-16.486-5.088-16.486-14.812c0-1.531,1.241-2.771,2.772-2.771h26.984    c1.531,0,2.772,1.24,2.772,2.771c0,4.625-1.787,8.506-5.168,11.224C58.716,72.254,54.855,73.528,50.725,73.528z M40.184,61.487    c1.385,4.444,6.104,6.498,10.539,6.499c0,0,0.001,0,0.002,0c2.872,0,5.5-0.841,7.398-2.367c1.358-1.091,2.273-2.475,2.738-4.133    H40.184z"/></g></g></svg>
