<svg xmlns="http://www.w3.org/2000/svg" xmlns:xlink="http://www.w3.org/1999/xlink" version="1.1" x="0px" y="0px" viewBox="0 0 100 100" enable-background="new 0 0 100 100" xml:space="preserve"><g><g><path fill-rule="evenodd" clip-rule="evenodd" d="M18.137,81.559c17.518,17.518,45.903,17.512,63.421,0    c17.517-17.517,17.517-45.906,0-63.423c-17.518-17.512-45.907-17.518-63.424,0C0.62,35.653,0.623,64.042,18.137,81.559z     M47.265,16.318c18.527-1.435,34.687,12.432,36.116,30.945c1.429,18.53-12.443,34.69-30.956,36.113    C33.911,84.811,17.74,70.94,16.314,52.426C14.888,33.906,28.749,17.742,47.265,16.318z"/></g><g><path fill-rule="evenodd" clip-rule="evenodd" d="M33.993,65.701c8.756,8.753,22.954,8.753,31.701,0.005l0.005-0.005    c1.095-1.095,1.1-2.863,0-3.964c-1.089-1.089-2.868-1.095-3.963,0l-0.006,0.006c-6.563,6.564-17.202,6.569-23.774-0.006    c-1.094-1.095-2.871-1.1-3.966-0.005C32.893,62.832,32.898,64.605,33.993,65.701z"/></g><g><path d="M64.451,40.24c-3.098,0-5.605,2.507-5.605,5.606c0,3.098,2.507,5.605,5.605,5.605c3.093,0,5.606-2.507,5.606-5.605    C70.058,42.747,67.545,40.24,64.451,40.24z"/></g><g><path d="M29.398,45.845c0,3.099,2.507,5.606,5.605,5.606c3.098,0,5.606-2.507,5.606-5.606c0-3.097-2.508-5.606-5.606-5.606    C31.905,40.239,29.398,42.748,29.398,45.845z"/></g></g></svg>
