<svg xmlns="http://www.w3.org/2000/svg" xmlns:xlink="http://www.w3.org/1999/xlink" version="1.1" x="0px" y="0px" viewBox="0 0 100 100" enable-background="new 0 0 100 100" xml:space="preserve"><g><g><path d="M66.37,69.236H33.936c-1.531,0-2.771-1.24-2.771-2.771c0-1.531,1.24-2.771,2.771-2.771H66.37    c1.531,0,2.771,1.24,2.771,2.771C69.141,67.997,67.901,69.236,66.37,69.236z"/></g><g><path fill-rule="evenodd" clip-rule="evenodd" d="M81.86,18.27c-17.52-17.51-45.9-17.51-63.42,0c-17.52,17.52-17.51,45.91,0,63.43    c17.52,17.52,45.9,17.51,63.42,0C99.38,64.18,99.38,35.79,81.86,18.27z M52.73,83.51c-18.52,1.44-34.69-12.43-36.11-30.95    c-1.43-18.52,12.43-34.68,30.95-36.1C66.1,15.02,82.26,28.89,83.68,47.4C85.11,65.93,71.24,82.09,52.73,83.51z"/></g><g><path d="M72.56,44.68c-0.52,0.82-1.38,1.28-2.28,1.3c0,3.1-2.52,5.61-5.61,5.61c-3.1,0-5.6-2.51-5.6-5.61    c0-2.04,1.08-3.82,2.71-4.79l-1.99-1.25c-1.29-0.81-1.69-2.52-0.87-3.82c0.81-1.29,2.52-1.69,3.82-0.87l8.94,5.61    C72.98,41.67,73.37,43.38,72.56,44.68z"/></g><g><path d="M40.5,39.94l-2.18,1.37c1.51,1.01,2.51,2.72,2.51,4.67c0,3.1-2.32,5.61-5.42,5.61c-3.09,0-5.41-2.51-5.41-5.61v-0.04    c-1-0.13-1.64-0.56-2.07-1.26c-0.82-1.3-0.525-3.01,0.775-3.82l8.903-5.61c1.3-0.82,2.986-0.42,3.796,0.87    C42.214,37.42,41.8,39.13,40.5,39.94z"/></g></g></svg>
